<!DOCTYPE svg PUBLIC "-//W3C//DTD SVG 1.1//EN" "http://www.w3.org/Graphics/SVG/1.1/DTD/svg11.dtd">
<!-- Uploaded to: SVG Repo, www.svgrepo.com, Transformed by: SVG Repo Mixer Tools -->
<svg width="64px" height="64px" viewBox="0 0 48 48" xmlns="http://www.w3.org/2000/svg" fill="#000000">
<g id="SVGRepo_bgCarrier" stroke-width="0"/>
<g id="SVGRepo_tracerCarrier" stroke-linecap="round" stroke-linejoin="round" stroke="#CCCCCC" stroke-width="3.936">
<defs>
<style>.a{fill:none;stroke:#000000;stroke-linecap:round;stroke-linejoin:round;}</style>
</defs>
<path class="a" d="M7,11.15C4.32,10.85,4.5,10,4.5,9.57s.87-2.08,8.91-2.08c9.63,0,30.09,7.26,30.09,20s-17.88,9.82-21.42,9S9.85,32,9.85,28.18c0-2.78,7.13-4.35,14.59-4.35s10,2.09,10,4c0,.84-.4,1.84-2.3,2.38"/>
<path class="a" d="M21.66,15.3a190.17,190.17,0,0,0,0,25.21"/>
</g>
<g id="SVGRepo_iconCarrier">
<defs>
<style>.a{fill:none;stroke:#000000;stroke-linecap:round;stroke-linejoin:round;}</style>
</defs>
<path class="a" d="M7,11.15C4.32,10.85,4.5,10,4.5,9.57s.87-2.08,8.91-2.08c9.63,0,30.09,7.26,30.09,20s-17.88,9.82-21.42,9S9.85,32,9.85,28.18c0-2.78,7.13-4.35,14.59-4.35s10,2.09,10,4c0,.84-.4,1.84-2.3,2.38"/>
<path class="a" d="M21.66,15.3a190.17,190.17,0,0,0,0,25.21"/>
</g>
</svg>