<!DOCTYPE svg PUBLIC "-//W3C//DTD SVG 1.1//EN" "http://www.w3.org/Graphics/SVG/1.1/DTD/svg11.dtd">
<!-- Uploaded to: SVG Repo, www.svgrepo.com, Transformed by: SVG Repo Mixer Tools -->
<svg width="64px" height="64px" viewBox="0 -0.5 20 20" version="1.1" xmlns="http://www.w3.org/2000/svg" xmlns:xlink="http://www.w3.org/1999/xlink" fill="#000000">
<g id="SVGRepo_bgCarrier" stroke-width="0"/>
<g id="SVGRepo_tracerCarrier" stroke-linecap="round" stroke-linejoin="round"/>
<g id="SVGRepo_iconCarrier"> <title>dropbox [#158]</title> <desc>Created with Sketch.</desc> <defs> </defs> <g id="Page-1" stroke="none" stroke-width="1" fill="none" fill-rule="evenodd"> <g id="Dribbble-Light-Preview" transform="translate(-300.000000, -7479.000000)" fill="#000000"> <g id="icons" transform="translate(56.000000, 160.000000)"> <path d="M254.012,7330.74707 L249.825,7334.24637 L248,7333.0687 L248,7334.38937 L254,7338 L260,7334.38937 L260,7333.0687 L258.187,7334.24637 L254.012,7330.74707 Z M264,7322.92318 L258.117,7319 L254,7322.50952 L259.932,7326.25089 L264,7322.92318 Z M254,7329.99226 L258.117,7333.50177 L264,7329.57859 L259.932,7326.25089 L254,7329.99226 Z M244,7329.57859 L249.883,7333.50177 L254,7329.99226 L248.068,7326.25089 L244,7329.57859 Z M254,7322.50952 L248.068,7326.25089 L244,7322.92318 L249.883,7319 L254,7322.50952 Z" id="dropbox-[#158]"> </path> </g> </g> </g> </g>
</svg>